<?xml version="1.0" encoding="utf-8"?>
<COLLADA xmlns="http://www.collada.org/2005/11/COLLADASchema" version="1.4.1" xmlns:xsi="http://www.w3.org/2001/XMLSchema-instance">
  <asset>
    <contributor>
      <author>Blender User</author>
      <authoring_tool>Blender 2.82.7</authoring_tool>
    </contributor>
    <created>2025-06-19T18:58:59</created>
    <modified>2025-06-19T18:58:59</modified>
    <unit name="meter" meter="1"/>
    <up_axis>Z_UP</up_axis>
  </asset>
  <library_lights>
    <light id="Sun-light" name="Sun">
      <technique_common>
        <directional>
          <color sid="color">1 1 1</color>
        </directional>
      </technique_common>
      <extra>
        <technique profile="blender">
          <type sid="type" type="int">1</type>
          <flag sid="flag" type="int">0</flag>
          <mode sid="mode" type="int">1</mode>
          <gamma sid="blender_gamma" type="float">1</gamma>
          <red sid="red" type="float">1</red>
          <green sid="green" type="float">1</green>
          <blue sid="blue" type="float">1</blue>
          <shadow_r sid="blender_shadow_r" type="float">0</shadow_r>
          <shadow_g sid="blender_shadow_g" type="float">0</shadow_g>
          <shadow_b sid="blender_shadow_b" type="float">0</shadow_b>
          <energy sid="blender_energy" type="float">1</energy>
          <dist sid="blender_dist" type="float">12.5</dist>
          <spotsize sid="spotsize" type="float">45</spotsize>
          <spotblend sid="spotblend" type="float">0.15</spotblend>
          <att1 sid="att1" type="float">0</att1>
          <att2 sid="att2" type="float">1</att2>
          <falloff_type sid="falloff_type" type="int">2</falloff_type>
          <clipsta sid="clipsta" type="float">0.04999995</clipsta>
          <clipend sid="clipend" type="float">40</clipend>
          <bias sid="bias" type="float">1</bias>
          <soft sid="soft" type="float">3</soft>
          <bufsize sid="bufsize" type="int">512</bufsize>
          <samp sid="samp" type="int">3</samp>
          <buffers sid="buffers" type="int">1</buffers>
          <area_shape sid="area_shape" type="int">0</area_shape>
          <area_size sid="area_size" type="float">0.125</area_size>
          <area_sizey sid="area_sizey" type="float">0.125</area_sizey>
          <area_sizez sid="area_sizez" type="float">0.125</area_sizez>
        </technique>
      </extra>
    </light>
  </library_lights>
  <library_effects>
    <effect id="Stone_Arch_Large___Base_001-effect">
      <profile_COMMON>
        <technique sid="common">
          <lambert>
            <emission>
              <color sid="emission">0 0 0 1</color>
            </emission>
            <diffuse>
              <color sid="diffuse">0.5895889 0.5895889 0.5895889 1</color>
            </diffuse>
            <index_of_refraction>
              <float sid="ior">1.45</float>
            </index_of_refraction>
          </lambert>
        </technique>
      </profile_COMMON>
    </effect>
  </library_effects>
  <library_images/>
  <library_materials>
    <material id="Stone_Arch_Large___Base_001-material" name="Stone_Arch_Large___Base.001">
      <instance_effect url="#Stone_Arch_Large___Base_001-effect"/>
    </material>
  </library_materials>
  <library_geometries>
    <geometry id="Stone_Arch_-_Large_001-mesh" name="Stone Arch - Large.001">
      <mesh>
        <source id="Stone_Arch_-_Large_001-mesh-positions">
          <float_array id="Stone_Arch_-_Large_001-mesh-positions-array" count="513">69.69993 -30.53274 6.973522 57.50375 -23.01082 6.673397 71.94001 -24.9235 1.156834 89.12339 -16.66429 7.759052 78.6764 -21.7745 -6.746204 58.54199 -14.94776 -7.975788 81.29089 -14.37262 -9.333783 59.37499 6.665562 -15.61163 59.11817 -5.932505 -11.66735 71.49491 -11.20385 -17.36509 58.7085 -3.747168 -24.44628 74.27391 -0.4066982 -20.64273 77.60988 7.659374 -12.51558 66.97736 3.287093 -32.38295 68.66969 6.552152 -27.40782 59.96365 14.77318 -31.07922 63.61876 8.453577 -17.853 46.71735 8.696974 -19.78911 29.02436 -4.631067 -20.00929 24.80713 1.705743 -6.396702 23.69798 1.79852 -16.83969 18.59035 19.17808 3.301418 21.91279 15.48902 -6.994946 18.26046 6.38869 -21.05293 27.804 21.58249 -3.867176 27.4083 24.42071 -9.344182 40.61395 14.53919 -14.19797 43.61985 14.55472 -8.626076 25.58681 17.08936 -17.39942 34.18073 16.33685 -26.83752 29.34652 21.1463 -36.52603 49.43283 14.43916 -35.54818 45.18436 10.42538 -45.17152 23.81473 14.48175 -52.8576 7.986577 20.13926 -51.08257 7.647495 5.582437 -59.38159 35.72835 -13.06648 -41.61781 10.44193 -3.295389 -51.42765 13.25039 -2.755632 -42.61756 -1.829609 -0.4327278 -52.70183 6.294215 5.260951 -39.54498 -4.146098 3.569797 -45.09791 -14.54334 0.4292202 -52.5698 7.777212 -1.063259 -25.31843 1.34304 -2.284983 -30.9899 -13.13127 5.253205 -41.84942 -7.954837 -7.993393 -25.17749 -10.95855 4.17949 -31.71574 -16.12187 1.717729 -24.73421 -14.7276 -6.42532 -14.54113 -14.29946 9.601556 -16.70219 -12.69439 -14.31133 -6.377384 -18.27899 1.496921 -8.869313 -18.02993 -6.348349 8.53349 0.3764213 9.644633 -9.011723 -13.63676 15.34065 5.047424 -2.087473 14.45949 -0.9011574 3.416238 1.904717 8.82063 7.195217 4.637333 -5.255619 6.613541 9.580268 -17.67492 4.032226 -0.4622021 -18.11503 5.799096 14.49078 -35.37579 0.2224763 16.25518 -17.2138 -3.75869 15.11988 -22.40065 -10.36257 13.1184 -31.12497 -17.71346 10.9822 -42.0077 -17.11666 21.55309 -42.66004 -30.51658 4.332206 -41.01178 -31.53345 6.914874 -33.92678 -37.0672 17.02787 -32.03386 -39.26926 18.35428 -46.27342 -43.5432 16.49452 -18.89326 -46.62073 22.17839 -21.15266 -52.06371 19.8265 -28.38757 -49.51645 20.74608 -5.872196 -65.2391 15.02256 -24.7034 -56.75731 21.61891 -16.40476 -64.00981 14.0199 -18.53624 -64.71913 20.70903 -13.13232 -75.82533 20.36911 -12.11963 -76.05928 17.36993 -1.277706 -67.19616 19.64137 7.752552 -83.07429 8.777244 7.983654 -88.91335 2.889642 -5.756451 -80.64452 -7.54245 8.376416 -76.92137 -16.53926 -0.6510124 -61.7667 -23.50388 5.25703 -43.5702 8.894444 8.107396 -45.78944 -17.44843 5.027363 -44.70682 -3.797098 3.536327 -50.0236 -10.68614 -7.207684 -45.02294 7.427834 -11.25455 -40.58999 -0.2317638 -19.48654 -53.68076 -2.739626 -14.71928 -40.58905 11.796 2.031925 -47.61231 25.78288 6.821552 -40.38554 1.251331 -27.32725 -41.04981 -5.644463 -35.64775 -60.16086 -7.923159 -34.85409 -56.07255 -8.095866 -24.56465 -55.92273 1.0947 -44.88562 -58.56722 -9.27178 -40.10268 -70.08756 -7.306572 -40.67592 -67.04428 -4.534506 -55.3852 -63.40482 0.831089 -67.70915 -57.42703 0.7047491 -60.64511 -51.89803 7.231915 -67.93561 -74.76925 7.472767 -56.00873 -70.56317 6.444121 -61.19228 -71.44268 16.98377 -67.7107 -68.56671 14.83068 -47.82539 -66.03267 18.84783 -59.35269 -61.03813 25.30969 -64.58626 -71.48249 3.060252 -45.16535 -59.48292 16.1407 -71.77182 -53.4577 20.96574 -41.68968 -50.71739 22.5323 -51.89047 -52.89176 20.82267 -67.20548 -48.30438 18.18528 -57.95437 -37.08197 22.63481 -54.34344 -33.63284 23.37128 -41.5157 -10.16597 23.9111 -54.37266 -19.62448 19.45299 -47.53013 -29.85702 2.037998 -54.40317 -24.59045 11.84281 -59.5792 0.9102386 20.46285 -55.20299 6.759083 19.25172 -44.05041 1.463142 24.11571 -38.08882 14.74135 16.43895 -38.01637 26.3565 16.31406 -32.33674 30.14568 -0.7592335 -29.08881 23.30163 -10.69023 -45.20486 40.91192 -2.930978 -26.20218 35.90832 4.377535 -51.23757 42.64384 -0.360035 -43.44342 53.17698 3.404655 -42.78251 49.79083 -6.106798 -40.29627 57.98767 -8.50277 -35.98523 65.08084 -3.546331 -3.121372 76.32361 3.498509 -7.000393 86.03119 -0.5479803 3.400005 77.8994 0.4817391 8.817639 84.06947 -0.6504746 -5.648899 83.57628 -4.397591 -12.42294 59.31672 -12.5648 7.740253 -40.84896 6.355628 -53.49494 -57.67373 19.32295 -36.25564 -59.51884 12.44748 -32.72568 -77.49449 12.80036 -38.74488 -80.95861 9.79624 -23.42124 -79.65857 8.3424 -32.96245 -73.97465 -2.599062 -40.54708 -81.37657 -0.9970303 -22.34992 -68.24203 -10.87433 -25.86495 -83.75313 -9.931796 -15.7685 -58.0509 -4.285311 -19.22591 -69.42569 -13.27744 -15.31302 -75.04862 -11.99617 -7.743824 -86.33248 -3.491501 -9.111695 -85.40815 4.606455 -9.951916 -88.06174 5.67898 -15.74892 0.4447454 -9.958085 -5.538006 -3.222592 -17.27554 6.140171 41.46004 1.051628 -12.37123 36.82518 16.6505 5.138142 43.2983 8.29706 8.968358 41.8976 -3.933369 -1.852161 34.33106 -5.218998 7.997555 25.73891 -3.810387 -0.7511177 24.33493 25.32805 6.076397 19.09219 5.639406 8.113278</float_array>
          <technique_common>
            <accessor source="#Stone_Arch_-_Large_001-mesh-positions-array" count="171" stride="3">
              <param name="X" type="float"/>
              <param name="Y" type="float"/>
              <param name="Z" type="float"/>
            </accessor>
          </technique_common>
        </source>
        <source id="Stone_Arch_-_Large_001-mesh-normals">
          <float_array id="Stone_Arch_-_Large_001-mesh-normals-array" count="513">-0.7485161 -0.5382052 0.3873746 -0.03199231 -0.9616697 0.2723378 -0.6725732 0.3148575 0.6697091 0.8277184 -0.340604 0.4459498 -0.001476883 0.6660851 0.7458744 0.07264596 -0.8593792 -0.5061522 -0.8370071 -0.3199965 -0.443871 0.3380206 -0.7077773 -0.6203173 0.7731621 -0.4888985 -0.4039787 -0.6429155 0.6508688 0.4037692 0.1197141 -0.7387855 -0.6632229 -0.9866439 -0.1550288 0.04999929 -0.2168391 -0.959392 0.1804108 -0.463747 0.4985309 0.7323973 0.7352075 0.1310106 -0.6650611 0.8861361 -0.03169107 -0.4623403 0.4001507 0.9142186 -0.06390553 0.7198466 -0.04366815 -0.6927583 0.772507 0.5935834 -0.2255919 0.1655895 0.9507147 0.262148 0.2904499 0.9180793 -0.2697581 0.3557817 0.9081993 -0.2204398 0.4844723 0.02891218 -0.8743288 0.4710716 0.4188935 -0.776286 0.5030483 0.4395712 0.7441234 0.06762838 -0.8863859 0.4579811 0.3153477 0.9260404 0.2073763 0.7282723 -0.6810611 0.07599467 0.6890829 0.6954715 -0.2036763 -0.331823 -0.9232472 0.1936706 -0.5672485 -0.7889342 0.2362457 -0.7312695 -0.6627455 -0.1612865 -0.5383628 -0.8296265 -0.1479373 0.6462177 -0.756951 -0.09709727 -0.9661824 -0.14024 -0.2163892 -0.9213976 0.3814665 0.07422852 -0.9582141 0.2734199 -0.08406823 -0.1737313 0.9826034 -0.06563585 -0.3941653 0.8636977 -0.3141021 -0.02290838 0.9984135 0.05143797 -3.05587e-4 0.999728 -0.02332228 -0.8543111 0.4241313 0.3004419 0.2224584 0.6520507 -0.7248049 -0.01995933 0.6599377 0.7510552 0.4335167 -0.1286454 -0.8919158 0.3628844 0.9277379 -0.08727747 0.3093228 0.8952587 -0.3206732 -0.09202098 -0.1232633 -0.9880983 0.08752506 -0.9788462 -0.1849312 -0.04034018 -0.7078051 -0.705255 -0.1732451 -0.9580907 -0.2281411 -0.3269689 -0.835967 -0.4407388 -0.4200767 -0.5707048 0.705572 0.4592543 -0.7332553 0.5014203 -0.06912553 -0.9837796 0.1655275 0.5633699 0.3595138 0.7438846 0.217196 -0.8775886 -0.4273921 0.02440971 -0.9163079 -0.3997302 -0.5923023 -0.7423056 0.3133056 0.8372637 -0.5451712 0.04216849 0.8898376 0.4234144 0.1700279 -0.8138996 -0.4348965 -0.3852695 -0.1556316 -0.893962 -0.4202509 0.8230499 -0.5621481 0.08110857 -0.9220582 -0.05368602 -0.3833103 -0.6911233 0.5731524 0.4402784 0.6778802 -0.6992274 -0.2270671 -0.6920862 -0.678999 -0.2449026 -0.3879384 -0.8474329 -0.362438 -0.97599 0.2069032 -0.06807851 -0.6561155 0.7484393 0.09670114 -0.7148209 -0.2441728 0.6552944 0.2891693 -0.8428213 0.453909 -0.4297366 0.8301138 0.3552995 0.2179784 0.9660047 0.1389982 0.3011423 0.9528061 -0.03839319 0.6581889 0.1084936 0.7449944 0.9798088 0.1786042 0.0898627 0.2569249 0.9616401 0.09611451 -0.1894931 0.981841 -0.008983194 0.2202234 0.8998942 0.3764201 -0.258277 -0.3577162 0.8974031 -0.2367895 0.9210354 0.3092321 0.3279827 -0.9300509 0.1656286 -0.280248 -0.819088 -0.5005557 0.638311 -0.2949745 0.7110199 0.1320387 0.9912229 0.00656104 0.5031532 0.6572122 0.5611675 -0.107029 0.9912786 0.07688689 0.007866978 0.9933683 -0.1147067 0.7461217 -0.6078752 0.2716437 -0.1432044 0.9815372 0.1267961 -0.3235434 0.8970636 0.3009931 0.2727961 0.9277443 0.2547017 -0.2118035 0.9660402 -0.148006 0.7695448 -0.5412462 0.3389002 0.7932693 0.4462663 0.4142104 -0.134436 0.9791542 -0.1522634 -0.374161 0.9115746 -0.170398 0.4455351 0.8806663 -0.1610143 0.9903889 -0.08816027 0.106572 -0.4459772 0.8459269 -0.2924245 -0.1785884 0.9244481 -0.3369003 -0.3914139 0.9038351 -0.1728509 -0.2102206 0.6981796 0.6843629 -0.5542594 0.8199831 0.1429134 -0.7102468 0.5783944 -0.4012599 -0.9030538 0.4256906 0.05728423 -0.6378529 0.340342 0.690877 -0.9846598 0.1294418 -0.1170043 -0.5448089 -0.347209 0.7633016 -0.9160612 -0.4009664 0.007598698 -0.5994542 -0.8000115 -0.02522808 0.06578516 -0.9203365 0.3855556 0.5950326 -0.01247394 0.8036049 0.6992178 -0.6425375 0.3134329 -0.07917672 -0.9194524 -0.3851472 0.6462372 -0.5468121 -0.5323289 0.9767951 -0.1638848 -0.137888 0.9874651 0.1564609 0.0208047 0.6875115 -0.698305 -0.1992436 0.3346506 0.8459955 0.4150912 0.4001907 -0.9159892 -0.02848529 0.3908277 -0.9138834 0.1098681 0.3768206 -0.9111612 0.1667084 0.1119941 -0.9916513 0.06391513 0.05810487 -0.9100615 -0.4103805 0.3331376 -0.8387028 -0.4308097 0.1522473 -0.6644336 -0.7316754 -0.389898 -0.8760958 -0.2836117 -0.2782588 -0.8707796 -0.4053577 0.3448508 -0.8676786 -0.3580667 0.4742674 0.5173484 -0.712335 -0.8231354 -0.301389 -0.4812616 -0.2619715 -0.8081366 -0.5275284 0.7469051 -0.4079891 -0.5250503 0.03199177 0.1802596 -0.9830987 -0.9846292 0.03583008 -0.170943 -0.9453268 -0.0747537 -0.3174415 -0.8560103 0.3391487 -0.3901596 -0.6378166 0.7698644 -0.02233725 -0.5736323 0.7719346 0.2739767 -0.09942018 0.9947801 -0.02298706 -0.8199055 0.5482074 -0.1649966 -0.04973316 0.9940997 -0.0963971 0.6126276 0.5816738 -0.5351104 6.70979e-4 0.8872507 -0.4612872 0.01593422 0.8048021 -0.5933293 -0.03579252 -0.07127767 -0.9968142 0.14193 0.5407387 -0.8291306 -0.5956427 -0.7850338 0.1700935 0.529353 -0.7891621 -0.3114621 0.3737697 -0.2974997 -0.8785159 0.3386936 -0.310626 -0.8881431 0.001002073 0.8771151 0.4802793 0.8920991 0.4297094 -0.139675 0.7580303 0.6047933 0.244162 -0.4314637 0.869426 0.240702 -0.9160378 0.3425751 -0.2086079 -0.8860204 -0.4539881 -0.09414291 -0.7597488 -0.3868221 -0.5226382 -0.1883658 -0.9635238 -0.1901057 -0.6181448 -0.7303745 -0.2906033 -0.9596974 0.2483269 -0.1315853 -0.5813478 -0.7456223 -0.3257024 0.8687106 0.4792922 -0.1249836 0.5609822 0.7713725 0.3004721 0.7152119 0.08161735 0.6941258 -0.1856682 0.9007807 0.3925832 0.04826408 -0.7792336 0.6248724 -0.8251991 -0.237214 0.5126167</float_array>
          <technique_common>
            <accessor source="#Stone_Arch_-_Large_001-mesh-normals-array" count="171" stride="3">
              <param name="X" type="float"/>
              <param name="Y" type="float"/>
              <param name="Z" type="float"/>
            </accessor>
          </technique_common>
        </source>
        <source id="Stone_Arch_-_Large_001-mesh-map-0">
          <float_array id="Stone_Arch_-_Large_001-mesh-map-0-array" count="2028">0.8170242 0.6749116 0.7736576 0.6497653 0.8420799 0.6503761 0.7861327 0.5916739 0.8462966 0.5995231 0.8420799 0.6503761 0.7861327 0.5916739 0.8420799 0.6503761 0.7736576 0.6497653 0.2808262 0.2252676 0.2831731 0.2613012 0.2574529 0.2355708 0.9018468 0.6763586 0.8525863 0.726132 0.8492092 0.7077206 0.2574529 0.2355708 0.2831731 0.2613012 0.2429776 0.278627 0.9018468 0.6763586 0.8492092 0.7077206 0.8546029 0.6751432 0.2191938 0.219999 0.2574529 0.2355708 0.2429776 0.278627 0.274317 0.8428904 0.2949519 0.8754882 0.2457967 0.8918219 0.4806008 0.1905948 0.4401637 0.2168806 0.4811623 0.1622499 0.2457967 0.8918219 0.2949519 0.8754882 0.2790323 0.9050398 0.4401637 0.2168806 0.4428309 0.1884091 0.4811623 0.1622499 0.4428309 0.1884091 0.4401637 0.2168806 0.42263 0.19728 0.2457967 0.8918219 0.2790323 0.9050398 0.2548336 0.9088064 0.6739465 0.04836201 0.6887 0.06255 0.6820105 0.07686096 0.09022438 0.4030475 0.08234435 0.3811568 0.1064742 0.3810072 0.3206927 0.7908719 0.329828 0.8258144 0.2837383 0.822026 0.9055218 0.2676154 0.8640145 0.2704899 0.8752263 0.2333909 0.3692623 0.8271175 0.329828 0.8258144 0.3206927 0.7908719 0.3694683 0.7998719 0.3692623 0.8271175 0.3206927 0.7908719 0.9143361 0.7016229 0.92872 0.6836 0.932508 0.6952777 0.8640145 0.2704899 0.9055218 0.2676154 0.8750302 0.2947507 0.1293827 0.5854484 0.1566928 0.5968626 0.125406 0.6135023 0.08028137 0.2712458 0.1178583 0.2602084 0.09717398 0.2779094 0.5983704 0.4558135 0.6247557 0.4818352 0.569394 0.4810689 0.569394 0.4810689 0.6247557 0.4818352 0.5580701 0.5147055 0.4893001 0.8129556 0.5426561 0.8205156 0.5049459 0.8412497 0.6247557 0.4818352 0.597745 0.5309628 0.5580701 0.5147055 0.597745 0.5309628 0.5573675 0.5453052 0.5580701 0.5147055 0.883 0.89768 0.8963267 0.8859289 0.89505 0.90435 0.5326145 0.7894361 0.5426561 0.8205156 0.4893001 0.8129556 0.7453632 0.4749756 0.76995 0.50219 0.7445541 0.4945808 0.7821816 0.4744409 0.76995 0.50219 0.7453632 0.4749756 0.5326145 0.7894361 0.4893001 0.8129556 0.5030178 0.7707972 0.8441922 0.1725726 0.8449869 0.1384336 0.870864 0.1705855 0.2853397 0.1922489 0.3104013 0.1926824 0.299271 0.2136965 0.9095208 0.7591374 0.9163433 0.723552 0.9368 0.75076 0.9095208 0.7591374 0.8880138 0.7170614 0.9163433 0.723552 0.8084471 0.1744027 0.7932001 0.1400077 0.819217 0.1279258 0.7735183 0.1349153 0.7932001 0.1400077 0.8084471 0.1744027 0.7735183 0.1349153 0.8084471 0.1744027 0.7765887 0.1786955 0.7601166 0.315979 0.7406753 0.3128171 0.7486063 0.2860726 0.7486063 0.2860726 0.7437378 0.2611858 0.8225654 0.2813149 0.7486063 0.2860726 0.7880281 0.3075751 0.7601166 0.315979 0.8724155 0.3586472 0.88965 0.33793 0.8912356 0.3512178 0.7880281 0.3075751 0.7486063 0.2860726 0.8225654 0.2813149 0.6440141 0.3941429 0.6638963 0.4060353 0.6161261 0.4471068 0.6638963 0.4060353 0.6493871 0.4427736 0.6161261 0.4471068 0.6530166 0.3570643 0.6648781 0.3821828 0.6440141 0.3941429 0.6648781 0.3821828 0.6638963 0.4060353 0.6440141 0.3941429 0.8594484 0.5838823 0.8770087 0.5304171 0.8929486 0.5841156 0.4929088 0.2268357 0.5294865 0.1909071 0.5110405 0.2373901 0.7806409 0.8681238 0.76206 0.87831 0.75877 0.86501 0.76206 0.87831 0.7806409 0.8681238 0.8033893 0.8918777 0.6493871 0.4427736 0.67243 0.49492 0.6525569 0.4851013 0.5444557 0.2184948 0.5110405 0.2373901 0.5294865 0.1909071 0.5580701 0.5147055 0.5467538 0.544123 0.4977433 0.5576199 0.5373809 0.4461352 0.5992168 0.4283072 0.5417938 0.4938876 0.5373809 0.4461352 0.5417938 0.4938876 0.4981205 0.4738482 0.562639 0.5930494 0.5103294 0.6182799 0.5573675 0.5453052 0.4981205 0.4738482 0.5417938 0.4938876 0.4734043 0.5027148 0.5417938 0.4938876 0.4915511 0.5244144 0.4734043 0.5027148 0.562639 0.5930494 0.4988546 0.6629331 0.5103294 0.6182799 0.3511188 0.6032213 0.2995738 0.601508 0.4012834 0.5172135 0.2995738 0.601508 0.3649389 0.5177239 0.4012834 0.5172135 0.4988546 0.6629331 0.4848525 0.6394688 0.5103294 0.6182799 0.1270239 0.1729177 0.1320848 0.1341917 0.1406051 0.1490944 0.3843362 0.4812499 0.4012834 0.5172135 0.3649389 0.5177239 0.7297654 0.9078032 0.76348 0.88612 0.7486392 0.919283 0.6007451 0.2744643 0.5774853 0.3030333 0.5382691 0.2741136 0.2085838 0.6172804 0.21793 0.5649955 0.232443 0.6025667 0.58035 0.32205 0.5774853 0.3030333 0.6000636 0.3339153 0.5774853 0.3030333 0.6007451 0.2744643 0.6000636 0.3339153 0.0765621 0.6553578 0.08459997 0.67265 0.0615071 0.6758357 0.2085838 0.6172804 0.232443 0.6025667 0.2434634 0.645721 0.0765621 0.6553578 0.0615071 0.6758357 0.05884808 0.6323558 0.4467105 0.1610577 0.42909 0.1112675 0.45212 0.1039541 0.42909 0.1112675 0.4467105 0.1610577 0.4297145 0.1431707 0.45212 0.1039541 0.45656 0.12996 0.4467105 0.1610577 0.2431285 0.1292204 0.2731317 0.1471303 0.2205245 0.1548771 0.60003 0.1673403 0.5764055 0.1493102 0.5869143 0.1290992 0.1787635 0.787051 0.1570307 0.8257731 0.1595566 0.778256 0.60003 0.1673403 0.5547986 0.1904259 0.5764055 0.1493102 0.838413 0.2523257 0.8339202 0.2222419 0.8535757 0.2408114 0.60003 0.1673403 0.5716242 0.2029608 0.5547986 0.1904259 0.2112092 0.6889069 0.2223899 0.7355 0.2086696 0.7374192 0.1899578 0.8103626 0.1904794 0.8429487 0.1570307 0.8257731 0.2112092 0.6889069 0.2483192 0.6623722 0.2550946 0.7027884 0.7276898 0.4910281 0.6856065 0.4983898 0.7026844 0.4601442 0.6373606 0.7078767 0.6738271 0.6810097 0.6684966 0.707247 0.7026844 0.4601442 0.7287958 0.4406318 0.7276898 0.4910281 0.7026844 0.4601442 0.6791617 0.4204095 0.7287958 0.4406318 0.7287958 0.4406318 0.6791617 0.4204095 0.7183327 0.3868231 0.43934 0.06699997 0.4362173 0.08985549 0.4198555 0.05963742 0.743857 0.6693614 0.6884633 0.6551497 0.7187674 0.6208019 0.4198555 0.05963742 0.4362173 0.08985549 0.4029273 0.1034697 0.451322 0.8685641 0.3992192 0.8799943 0.4414538 0.8468496 0.4414538 0.8468496 0.3992192 0.8799943 0.4104436 0.8266666 0.7564236 0.8289491 0.6931963 0.808722 0.750746 0.7843765 0.750746 0.7843765 0.6931963 0.808722 0.706756 0.7340694 0.6103381 0.1423634 0.6076349 0.1128925 0.6582015 0.1416478 0.6582015 0.1416478 0.6390633 0.1724318 0.6103381 0.1423634 0.8043301 0.5572088 0.8115802 0.5329757 0.8336334 0.5532632 0.7215114 0.2905131 0.7172445 0.3387446 0.6715989 0.3511203 0.8043301 0.5572088 0.7880464 0.531663 0.8115802 0.5329757 0.7880464 0.531663 0.80602 0.51518 0.8115802 0.5329757 0.6876259 0.2519207 0.7148305 0.2367871 0.7215114 0.2905131 0.6876259 0.2519207 0.7215114 0.2905131 0.6774758 0.3096956 0.6774758 0.3096956 0.7215114 0.2905131 0.6715989 0.3511203 0.6876259 0.2519207 0.6813326 0.2301843 0.7148305 0.2367871 0.1110225 0.7998017 0.14202 0.79914 0.1326586 0.8192639 0.1125402 0.8186197 0.1110225 0.7998017 0.1326586 0.8192639 0.8637718 0.3260437 0.8435025 0.3249242 0.8528266 0.2939481 0.1221448 0.3497894 0.1011699 0.3275429 0.1066476 0.295165 0.8435025 0.3249242 0.8637718 0.3260437 0.8584643 0.3506535 0.1221448 0.3497894 0.1066476 0.295165 0.1520346 0.3282409 0.8076478 0.2478671 0.8339202 0.2222419 0.838413 0.2523257 0.8979926 0.5732945 0.8803572 0.55079 0.9045808 0.5479281 0.1520346 0.3282409 0.1066476 0.295165 0.1221163 0.2806516 0.8589977 0.2102555 0.8535757 0.2408114 0.8339202 0.2222419 0.8339202 0.2222419 0.854857 0.1956068 0.8589977 0.2102555 0.8339202 0.2222419 0.8331601 0.1919866 0.854857 0.1956068 0.2434634 0.645721 0.232443 0.6025667 0.2652287 0.6118108 0.2652287 0.6118108 0.2830923 0.620805 0.2434634 0.645721 0.8435025 0.3249242 0.8584643 0.3506535 0.8174383 0.3555496 0.2434634 0.645721 0.2830923 0.620805 0.3144503 0.6522165 0.2434634 0.645721 0.3144503 0.6522165 0.2828994 0.6828106 0.470627 0.2673723 0.4509001 0.2825999 0.4233232 0.3027766 0.4233232 0.3027766 0.3962098 0.2735905 0.4105768 0.2446238 0.4586157 0.2358456 0.470627 0.2673723 0.4233232 0.3027766 0.2304251 0.8105722 0.2155752 0.8161329 0.1887503 0.7667646 0.2304251 0.8105722 0.1887503 0.7667646 0.2138408 0.7613118 0.4233232 0.3027766 0.4105768 0.2446238 0.4586157 0.2358456 0.4586157 0.2358456 0.480944 0.254596 0.470627 0.2673723 0.6664062 0.7345307 0.6651899 0.7574262 0.613523 0.7453429 0.2755322 0.8013397 0.290362 0.7397904 0.3217784 0.7518337 0.2577598 0.7949958 0.290362 0.7397904 0.2755322 0.8013397 0.1916627 0.6662234 0.1753003 0.7045215 0.1663912 0.6627874 0.1988584 0.3522988 0.1695522 0.333954 0.2255318 0.3274309 0.1695522 0.333954 0.181297 0.3061605 0.2255318 0.3274309 0.1644908 0.3065631 0.181297 0.3061605 0.1695522 0.333954 0.1753003 0.7045215 0.1412856 0.6847042 0.1663912 0.6627874 0.72171 0.05674999 0.7283578 0.07546776 0.7023602 0.06620669 0.1916627 0.6662234 0.1663912 0.6627874 0.1617391 0.6228003 0.1916627 0.6662234 0.1617391 0.6228003 0.1800909 0.6392865 0.1876692 0.2691634 0.210497 0.2819724 0.181297 0.3061605 0.6987805 0.1640584 0.6897396 0.1266263 0.7157942 0.143575 0.8056609 0.7108448 0.7553123 0.7276963 0.7705575 0.7035303 0.1587822 0.5376884 0.1328347 0.5199127 0.1504294 0.4934417 0.2503155 0.3243783 0.2727263 0.2992191 0.2641903 0.3426084 0.7705575 0.7035303 0.7553123 0.7276963 0.7206271 0.6963977 0.1587822 0.5376884 0.1504294 0.4934417 0.2184004 0.5159892 0.2184004 0.5159892 0.1504294 0.4934417 0.2065074 0.4725182 0.1504294 0.4934417 0.1725981 0.4685423 0.2065074 0.4725182 0.7553123 0.7276963 0.73031 0.72869 0.7206271 0.6963977 0.2503155 0.3243783 0.2641903 0.3426084 0.2181806 0.3768358 0.3600721 0.1937475 0.4075722 0.1862097 0.4165056 0.2152166 0.2184004 0.5159892 0.2065074 0.4725182 0.2379108 0.4777686 0.22892 0.45558 0.2379108 0.4777686 0.2065074 0.4725182 0.3600721 0.1937475 0.3549901 0.1740756 0.4075722 0.1862097 0.750056 0.2211109 0.7164202 0.2084867 0.732024 0.1590827 0.750056 0.2211109 0.732024 0.1590827 0.75275 0.1618505 0.3519619 0.6244346 0.4055455 0.7198274 0.3505329 0.6867945 0.7902067 0.2121722 0.750056 0.2211109 0.75275 0.1618505 0.2019469 0.1644697 0.13787 0.1739 0.1661704 0.1438165 0.3519619 0.6244346 0.4828502 0.6693745 0.4055455 0.7198274 0.4679859 0.5921483 0.4828502 0.6693745 0.3519619 0.6244346 0.4050437 0.5776235 0.4679859 0.5921483 0.3519619 0.6244346 0.7806111 0.4210797 0.7865436 0.3426315 0.8201615 0.3886298 0.7489503 0.3265824 0.7865436 0.3426315 0.7459424 0.3776543 0.7459424 0.3776543 0.7865436 0.3426315 0.7806111 0.4210797 0.5207168 0.3432579 0.5300278 0.3751667 0.4976484 0.3828345 0.5846609 0.3440891 0.5973479 0.3803774 0.5300278 0.3751667 0.5300278 0.3751667 0.5207168 0.3432579 0.5846609 0.3440891 0.5207168 0.3432579 0.5421974 0.3145974 0.5846609 0.3440891 0.2485689 0.07806611 0.2741726 0.09015929 0.2502764 0.1119001 0.5727961 0.8836495 0.603612 0.8965312 0.5964319 0.9097771 0.5964319 0.9097771 0.5539075 0.8900774 0.5727961 0.8836495 0.2673269 0.4454532 0.2838867 0.4644424 0.2489501 0.4877927 0.1833664 0.5658347 0.1587822 0.5376884 0.2184004 0.5159892 0.2873827 0.4101138 0.2673269 0.4454532 0.2974268 0.3720476 0.2873827 0.4101138 0.2838867 0.4644424 0.2673269 0.4454532 0.4828502 0.6693745 0.4766594 0.7219328 0.4055455 0.7198274 0.2236621 0.3024071 0.2255318 0.3274309 0.181297 0.3061605 0.0977087 0.7157783 0.09999167 0.6929382 0.13047 0.6871246 0.898874 0.3111954 0.9219195 0.2752068 0.91697 0.325226 0.2502764 0.1119001 0.2741726 0.09015929 0.3066251 0.1156077 0.2741726 0.09015929 0.3012723 0.09614437 0.3066251 0.1156077 0.3395203 0.1136778 0.3393853 0.09064966 0.3923633 0.1215829 0.470627 0.2673723 0.5210809 0.263524 0.4830358 0.2852367 0.08418023 0.2114975 0.1053212 0.1902391 0.1032106 0.2344075 0.91439 0.34102 0.91778 0.33091 0.9273157 0.3522896 0.330632 0.4233511 0.3880095 0.3902711 0.3907512 0.4273558 0.3071031 0.4714378 0.330632 0.4233511 0.3907512 0.4273558 0.3493941 0.4703084 0.3071031 0.4714378 0.3907512 0.4273558 0.3907512 0.4273558 0.3880095 0.3902711 0.4287879 0.3800575 0.7708884 0.6159501 0.7407912 0.6201984 0.7691343 0.5808433 0.7539868 0.5248066 0.7691343 0.5808433 0.7407912 0.6201984 0.5580334 0.2276537 0.6194236 0.2125641 0.6052387 0.2449467 0.5580334 0.2276537 0.5916168 0.2458707 0.5318565 0.2467975 0.5860977 0.8001123 0.6097189 0.7804517 0.6198906 0.8155208 0.8818 0.8413 0.8712086 0.861868 0.864606 0.8497415 0.3727605 0.85729 0.3707568 0.888747 0.3354569 0.8480492 0.8712086 0.861868 0.85077 0.87073 0.864606 0.8497415 0.6097189 0.7804517 0.6429424 0.8062742 0.6198906 0.8155208 0.163567 0.2245353 0.1297635 0.2305982 0.1407887 0.1969107 0.5817002 0.8204233 0.6198906 0.8155208 0.6181551 0.8453027 0.3354569 0.8480492 0.3707568 0.888747 0.3187386 0.8737511 0.163567 0.2245353 0.1407887 0.1969107 0.1725405 0.1893631 0.87199 0.42472 0.8922651 0.4327732 0.8796636 0.4430623 0.1189004 0.5278917 0.1173592 0.5500333 0.09763395 0.5293087 0.09763395 0.5293087 0.1173592 0.5500333 0.10073 0.55483 0.1676116 0.8507869 0.1578548 0.8769711 0.14279 0.84952 0.1131631 0.6514161 0.1452776 0.6411962 0.12981 0.67769 0.7565986 0.05370861 0.7454002 0.06732308 0.73726 0.04683995 0.3721179 0.7508519 0.3109498 0.7227185 0.3704257 0.7294123 0.1780834 0.8794009 0.1578548 0.8769711 0.1676116 0.8507869 0.78485 0.90075 0.80034 0.90526 0.773096 0.9086817 0.3239363 0.7042581 0.3704257 0.7294123 0.3109498 0.7227185 0.1968288 0.2066764 0.1903535 0.1885261 0.2433071 0.1916005 0.613523 0.7453429 0.5575113 0.7731434 0.5693238 0.7413122 0.07139837 0.3573457 0.08830165 0.3398674 0.1036873 0.3581698 0.31707 0.88471 0.3125278 0.8961645 0.30417 0.8776 0.6776291 0.863777 0.7098143 0.8925601 0.6882861 0.9072965 0.5580334 0.2276537 0.5982933 0.2038977 0.6194236 0.2125641 0.2743234 0.6898023 0.3239363 0.7042581 0.3109498 0.7227185 0.338123 0.3689557 0.3679927 0.385693 0.3176845 0.4070993 0.338123 0.3689557 0.3176845 0.4070993 0.3043487 0.394542 0.6660487 0.5500081 0.7157732 0.5529033 0.6964867 0.5917816 0.4021966 0.3364228 0.3679927 0.385693 0.338123 0.3689557 0.4021966 0.3364228 0.4451072 0.3408619 0.3679927 0.385693 0.6964867 0.5917816 0.6419314 0.6705064 0.6446552 0.6059255 0.6660487 0.5500081 0.6964867 0.5917816 0.6377353 0.570362 0.9465392 0.6276121 0.9455752 0.6040512 0.96203 0.60536 0.9491733 0.3359829 0.93379 0.33869 0.92409 0.32719 0.5834352 0.6308054 0.6446552 0.6059255 0.6419314 0.6705064 0.8221158 0.7917025 0.7851454 0.7864394 0.8084492 0.7472742 0.6419314 0.6705064 0.6018771 0.6957545 0.5834352 0.6308054 0.1795929 0.05837237 0.18949 0.06351995 0.17566 0.06906998 0.4389012 0.5024803 0.4734043 0.5027148 0.4462314 0.5589923 0.4389012 0.5024803 0.4462314 0.5589923 0.4115037 0.5505023 0.5540155 0.6787844 0.57704 0.6655086 0.6018771 0.6957545 0.4915511 0.5244144 0.4691787 0.552672 0.4462314 0.5589923 0.4915511 0.5244144 0.4462314 0.5589923 0.4734043 0.5027148 0.6018771 0.6957545 0.5662598 0.7251481 0.5540155 0.6787844 0.8852527 0.7640927 0.8531457 0.7666333 0.8742226 0.7399802 0.4625331 0.4911115 0.4981205 0.4738482 0.4734043 0.5027148 0.6007451 0.2744643 0.6411425 0.3359372 0.6000636 0.3339153 0.6612144 0.275998 0.6411425 0.3359372 0.6007451 0.2744643 0.1756899 0.91435 0.16095 0.90689 0.1656456 0.8927479 0.5751157 0.8709357 0.5555287 0.8331401 0.5931434 0.8581977 0.7841519 0.8567485 0.7660104 0.8339776 0.8087586 0.8160173 0.7660104 0.8339776 0.7841519 0.8567485 0.7604181 0.8570891 0.4852239 0.4031211 0.497313 0.4546939 0.4464928 0.4121712 0.4852239 0.4031211 0.5359814 0.4335958 0.497313 0.4546939 0.5359814 0.4335958 0.4852239 0.4031211 0.5330393 0.4005505 0.4209849 0.4871508 0.4464928 0.4121712 0.497313 0.4546939 0.3649389 0.5177239 0.2995738 0.601508 0.3202795 0.5592892 0.9018512 0.6188442 0.92902 0.6302 0.9038959 0.6488823 0.6207118 0.5467839 0.61459 0.58166 0.6015954 0.5735586 0.04830998 0.75538 0.04413998 0.73819 0.05687135 0.7334558 0.9038959 0.6488823 0.8674204 0.6285411 0.9018512 0.6188442 0.1467385 0.1186677 0.1143851 0.1177148 0.1367933 0.1064867 0.8721088 0.6038235 0.9018512 0.6188442 0.8674204 0.6285411 0.6406345 0.5180043 0.6207118 0.5467839 0.6247557 0.4818352 0.6207118 0.5467839 0.597745 0.5309628 0.6247557 0.4818352 0.8256675 0.8921967 0.8219555 0.8701379 0.84371 0.87073 0.3969656 0.458158 0.4464928 0.4121712 0.4209849 0.4871508 0.3460529 0.3045749 0.3306006 0.2475649 0.3612294 0.268334 0.3084393 0.3057911 0.3306006 0.2475649 0.3460529 0.3045749 0.28859 0.27728 0.3001018 0.2615474 0.3306006 0.2475649 0.3306006 0.2475649 0.29777 0.28345 0.28859 0.27728 0.3138447 0.352959 0.3084393 0.3057911 0.3460529 0.3045749 0.09148913 0.7695642 0.06823611 0.7513213 0.08962696 0.7379144 0.7348462 0.1229659 0.7061188 0.09397542 0.7238462 0.09476959 0.7502188 0.1146692 0.7348462 0.1229659 0.7238462 0.09476959 0.12665 0.25295 0.1394315 0.2480178 0.1353648 0.2643232 0.1834281 0.2376301 0.2062343 0.2336053 0.2131915 0.2624954 0.127495 0.7111614 0.1504063 0.713097 0.1202968 0.752623 0.1504063 0.713097 0.1833571 0.7318826 0.1754592 0.761676 0.1754592 0.761676 0.15103 0.76728 0.1504063 0.713097 0.1504063 0.713097 0.15103 0.76728 0.1202968 0.752623 0.127495 0.7111614 0.1202968 0.752623 0.09911906 0.7338457 0.3842529 0.331516 0.3138447 0.352959 0.3460529 0.3045749 0.6493871 0.4427736 0.6525569 0.4851013 0.6161261 0.4471068 0.4389012 0.5024803 0.4115037 0.5505023 0.4156028 0.5300599 0.3329666 0.08285456 0.3057149 0.06024968 0.3323927 0.05915915 0.3323927 0.05915915 0.3057149 0.06024968 0.31729 0.04262995 0.5575113 0.7731434 0.53419 0.75227 0.5693238 0.7413122 0.709227 0.8602125 0.6583288 0.836696 0.6615266 0.8264443 0.7255467 0.8487336 0.709227 0.8602125 0.6615266 0.8264443 0.2845866 0.3607779 0.247675 0.3991874 0.2641903 0.3426084 0.247675 0.3991874 0.2181806 0.3768358 0.2641903 0.3426084 0.09712368 0.6291341 0.1452776 0.6411962 0.1131631 0.6514161 0.87566 0.39978 0.8659492 0.4208603 0.852212 0.3903864 0.8240672 0.423312 0.839677 0.3784183 0.852212 0.3903864 0.774622 0.1008996 0.7404282 0.08479011 0.7695009 0.08753991 0.8484466 0.452688 0.852212 0.3903864 0.85376 0.441 0.8484466 0.452688 0.8240672 0.423312 0.852212 0.3903864 0.7695858 0.6290196 0.7407912 0.6201984 0.7708884 0.6159501 0.6770429 0.1867475 0.6913164 0.2095462 0.6616116 0.2266842 0.6332474 0.1928761 0.6616116 0.2266842 0.619611 0.2002336 0.6770429 0.1867475 0.6616116 0.2266842 0.6332474 0.1928761 0.6607537 0.8506416 0.6288691 0.882945 0.6438221 0.8388034 0.6607537 0.8506416 0.6657765 0.880427 0.6288691 0.882945 0.7421228 0.4404342 0.7806111 0.4210797 0.7726435 0.4512555 0.1625686 0.1242856 0.17965 0.1172 0.1863708 0.1335027 0.6657765 0.880427 0.6458697 0.9073274 0.6288691 0.882945 0.12621 0.88361 0.1361506 0.8724917 0.1416846 0.8913384 0.35351 0.08635997 0.3604631 0.07115554 0.3895561 0.0809037 0.8367192 0.8517197 0.8452481 0.800175 0.8645079 0.8238831 0.5135452 0.1745472 0.5255874 0.1310794 0.5380217 0.1671888 0.7547329 0.4121649 0.7459424 0.3776543 0.7806111 0.4210797 0.5390158 0.2945901 0.5421974 0.3145974 0.5207168 0.3432579 0.8201615 0.3886298 0.8020629 0.4087138 0.7806111 0.4210797 0.07095748 0.3703817 0.06855201 0.3947392 0.05966436 0.3844862 0.6166713 0.9183281 0.6086859 0.9286475 0.60189 0.92038 0.58877 0.92862 0.60189 0.92038 0.6086859 0.9286475 0.7025838 0.7194527 0.6855102 0.7279994 0.6895828 0.7038759 0.4165056 0.2152166 0.3517447 0.2094226 0.3600721 0.1937475 0.7025838 0.7194527 0.6895828 0.7038759 0.7206271 0.6963977 0.3104013 0.1926824 0.2853397 0.1922489 0.28873 0.1702539 0.3400843 0.1639013 0.3104013 0.1926824 0.28873 0.1702539 0.1578023 0.4285025 0.1286352 0.3987374 0.1707492 0.3838028 0.8594484 0.5838823 0.858175 0.5506758 0.8770087 0.5304171 0.1286352 0.3987374 0.1578023 0.4285025 0.1200759 0.4153259 0.1850894 0.4302697 0.1707492 0.3838028 0.2069952 0.390518 0.1308749 0.3615804 0.1707492 0.3838028 0.1286352 0.3987374 0.3218935 0.1263732 0.3400843 0.1639013 0.28873 0.1702539 0.38866 0.9275 0.3993554 0.920358 0.40126 0.93404 0.3400843 0.1639013 0.3218935 0.1263732 0.3453328 0.1337972 0.3852506 0.8006089 0.3961564 0.7487946 0.4446939 0.8124564 0.8892362 0.2221438 0.87144 0.19653 0.9062473 0.1942474 0.90589 0.41026 0.905473 0.3941132 0.9192 0.41829 0.7437378 0.2611858 0.7844314 0.2449382 0.8225654 0.2813149 0.3961564 0.7487946 0.4796329 0.752232 0.4446939 0.8124564 0.7594313 0.9434537 0.7517217 0.9359179 0.7653645 0.9149103 0.0411477 0.3194081 0.04333746 0.29778 0.05800664 0.306509</float_array>
          <technique_common>
            <accessor source="#Stone_Arch_-_Large_001-mesh-map-0-array" count="1014" stride="2">
              <param name="S" type="float"/>
              <param name="T" type="float"/>
            </accessor>
          </technique_common>
        </source>
        <vertices id="Stone_Arch_-_Large_001-mesh-vertices">
          <input semantic="POSITION" source="#Stone_Arch_-_Large_001-mesh-positions"/>
        </vertices>
        <triangles material="Stone_Arch_Large___Base_001-material" count="338">
          <input semantic="VERTEX" source="#Stone_Arch_-_Large_001-mesh-vertices" offset="0"/>
          <input semantic="NORMAL" source="#Stone_Arch_-_Large_001-mesh-normals" offset="1"/>
          <input semantic="TEXCOORD" source="#Stone_Arch_-_Large_001-mesh-map-0" offset="2" set="0"/>
          <p>1 0 0 0 1 1 144 2 2 3 3 3 141 4 4 144 2 5 3 3 6 144 2 7 0 1 8 0 1 9 1 0 10 2 5 11 3 3 12 0 1 13 2 5 14 2 5 15 1 0 16 5 6 17 3 3 18 2 5 19 4 7 20 4 7 21 2 5 22 5 6 23 1 0 24 144 2 25 5 6 26 4 7 27 5 6 28 6 8 29 5 6 30 144 2 31 138 9 32 5 6 33 9 10 34 6 8 35 9 10 36 5 6 37 8 11 38 5 6 39 138 9 40 8 11 41 8 11 42 10 12 43 9 10 44 8 11 45 7 13 46 10 12 47 9 10 48 11 14 49 143 15 50 11 14 51 12 16 52 143 15 53 13 17 54 11 14 55 9 10 56 10 12 57 13 17 58 9 10 59 11 14 60 13 17 61 14 18 62 12 16 63 11 14 64 16 19 65 14 18 66 16 19 67 11 14 68 16 19 69 14 18 70 15 20 71 14 18 72 13 17 73 15 20 74 15 20 75 13 17 76 31 21 77 31 21 78 16 19 79 15 20 80 13 17 81 135 22 82 31 21 83 135 22 84 32 23 85 31 21 86 16 19 87 17 24 88 7 13 89 17 24 90 16 19 91 31 21 92 17 24 93 10 12 94 7 13 95 132 25 96 10 12 97 17 24 98 17 24 99 31 21 100 29 26 101 17 24 102 163 27 103 132 25 104 26 28 105 163 27 106 17 24 107 163 27 108 18 29 109 132 25 110 163 27 111 20 30 112 18 29 113 163 27 114 19 31 115 20 30 116 168 32 117 19 31 118 163 27 119 168 32 120 163 27 121 166 33 122 23 34 123 20 30 124 19 31 125 19 31 126 168 32 127 21 35 128 19 31 129 22 36 130 23 34 131 23 34 132 18 29 133 20 30 134 22 36 135 19 31 136 21 35 137 22 36 138 25 37 139 23 34 140 25 37 141 28 38 142 23 34 143 21 35 144 24 39 145 22 36 146 24 39 147 25 37 148 22 36 149 25 37 150 26 28 151 28 38 152 28 38 153 26 28 154 29 26 155 29 26 156 30 40 157 28 38 158 30 40 159 29 26 160 31 21 161 28 38 162 30 40 163 129 41 164 17 24 165 29 26 166 26 28 167 31 21 168 32 23 169 30 40 170 30 40 171 32 23 172 33 42 173 30 40 174 33 42 175 128 43 176 133 44 177 33 42 178 32 23 179 128 43 180 33 42 181 126 45 182 33 42 183 34 46 184 126 45 185 133 44 186 35 47 187 33 42 188 133 44 189 36 48 190 35 47 191 36 48 192 37 49 193 35 47 194 35 47 195 34 46 196 33 42 197 131 50 198 39 51 199 37 49 200 39 51 201 35 47 202 37 49 203 38 52 204 39 51 205 131 50 206 38 52 207 40 53 208 39 51 209 39 51 210 40 53 211 41 54 212 61 55 213 40 53 214 128 43 215 40 53 216 38 52 217 128 43 218 41 54 219 40 53 220 44 56 221 39 51 222 41 54 223 42 57 224 41 54 225 44 56 226 45 58 227 43 59 228 40 53 229 61 55 230 40 53 231 43 59 232 44 56 233 61 55 234 59 60 235 43 59 236 47 61 237 45 58 238 44 56 239 46 62 240 44 56 241 43 59 242 60 63 243 46 62 244 43 59 245 46 62 246 47 61 247 44 56 248 48 64 249 64 65 250 47 61 251 46 62 252 48 64 253 47 61 254 161 66 255 46 62 256 60 63 257 161 66 258 49 67 259 46 62 260 161 66 261 51 68 262 49 67 263 48 64 264 46 62 265 49 67 266 48 64 267 52 69 268 50 70 269 49 67 270 52 69 271 48 64 272 49 67 273 51 68 274 52 69 275 52 69 276 51 68 277 53 71 278 161 66 279 162 72 280 51 68 281 55 73 282 52 69 283 53 71 284 51 68 285 162 72 286 53 71 287 54 74 288 52 69 289 56 75 290 56 75 291 52 69 292 55 73 293 162 72 294 57 76 295 53 71 296 53 71 297 57 76 298 55 73 299 56 75 300 55 73 301 57 76 302 57 76 303 58 77 304 56 75 305 58 77 306 54 74 307 56 75 308 58 77 309 57 76 310 162 72 311 58 77 312 59 60 313 54 74 314 59 60 315 62 78 316 54 74 317 60 63 318 59 60 319 58 77 320 60 63 321 58 77 322 161 66 323 161 66 324 58 77 325 162 72 326 60 63 327 43 59 328 59 60 329 59 60 330 61 55 331 63 79 332 62 78 333 59 60 334 63 79 335 61 55 336 64 65 337 63 79 338 62 78 339 63 79 340 50 70 341 64 65 342 61 55 343 127 80 344 62 78 345 50 70 346 54 74 347 63 79 348 64 65 349 48 64 350 63 79 351 48 64 352 50 70 353 54 74 354 50 70 355 52 69 356 45 58 357 47 61 358 64 65 359 64 65 360 65 81 361 45 58 362 64 65 363 66 82 364 65 81 365 42 57 366 41 54 367 45 58 368 45 58 369 65 81 370 42 57 371 64 65 372 127 80 373 66 82 374 42 57 375 65 81 376 67 83 377 42 57 378 67 83 379 123 84 380 68 85 381 67 83 382 65 81 383 65 81 384 66 82 385 120 86 386 69 87 387 68 85 388 65 81 389 66 82 390 122 88 391 70 89 392 66 82 393 70 89 394 120 86 395 65 81 396 120 86 397 69 87 398 69 87 399 96 90 400 68 85 401 120 86 402 70 89 403 115 91 404 115 91 405 69 87 406 120 86 407 146 92 408 69 87 409 115 91 410 72 93 411 69 87 412 73 94 413 96 90 414 69 87 415 92 95 416 69 87 417 71 96 418 92 95 419 72 93 420 71 96 421 69 87 422 69 87 423 146 92 424 73 94 425 71 96 426 72 93 427 76 97 428 72 93 429 73 94 430 75 98 431 72 93 432 75 98 433 76 97 434 74 99 435 91 100 436 71 96 437 76 97 438 74 99 439 71 96 440 76 97 441 77 101 442 78 102 443 74 99 444 76 97 445 78 102 446 77 101 447 76 97 448 75 98 449 78 102 450 77 101 451 79 103 452 74 99 453 78 102 454 81 104 455 81 104 456 78 102 457 80 105 458 78 102 459 79 103 460 80 105 461 77 101 462 149 106 463 79 103 464 77 101 465 75 98 466 149 106 467 159 107 468 80 105 469 79 103 470 81 104 471 80 105 472 82 108 473 83 109 474 82 108 475 80 105 476 159 107 477 83 109 478 80 105 479 84 110 480 82 108 481 83 109 482 84 110 483 83 109 484 158 111 485 84 110 486 81 104 487 82 108 488 85 112 489 84 110 490 158 111 491 86 113 492 84 110 493 85 112 494 84 110 495 87 114 496 81 104 497 88 115 498 87 114 499 84 110 500 86 113 501 88 115 502 84 110 503 156 116 504 86 113 505 85 112 506 88 115 507 86 113 508 90 117 509 90 117 510 86 113 511 156 116 512 90 117 513 89 118 514 88 115 515 91 100 516 94 119 517 89 118 518 89 118 519 90 117 520 91 100 521 90 117 522 93 120 523 91 100 524 91 100 525 93 120 526 92 95 527 94 119 528 91 100 529 74 99 530 74 99 531 95 121 532 94 119 533 87 114 534 94 119 535 95 121 536 95 121 537 74 99 538 81 104 539 89 118 540 87 114 541 88 115 542 89 118 543 94 119 544 87 114 545 87 114 546 95 121 547 81 104 548 91 100 549 92 95 550 71 96 551 68 85 552 96 90 553 97 122 554 92 95 555 99 123 556 96 90 557 92 95 558 93 120 559 99 123 560 93 120 561 155 124 562 99 123 563 97 122 564 96 90 565 98 125 566 68 85 567 97 122 568 67 83 569 98 125 570 96 90 571 99 123 572 98 125 573 101 126 574 97 122 575 97 122 576 101 126 577 100 127 578 67 83 579 97 122 580 100 127 581 145 128 582 67 83 583 100 127 584 100 127 585 101 126 586 102 129 587 102 129 588 103 130 589 100 127 590 145 128 591 100 127 592 103 130 593 105 131 594 118 132 595 145 128 596 105 131 597 145 128 598 103 130 599 105 131 600 103 130 601 108 133 602 108 133 603 104 134 604 105 131 605 106 135 606 104 134 607 114 136 608 104 134 609 106 135 610 105 131 611 103 130 612 107 137 613 108 133 614 107 137 615 103 130 616 113 138 617 104 134 618 108 133 619 109 139 620 114 136 621 104 134 622 109 139 623 107 137 624 113 138 625 110 140 626 108 133 627 111 141 628 109 139 629 108 133 630 107 137 631 111 141 632 111 141 633 107 137 634 110 140 635 112 142 636 114 136 637 109 139 638 113 138 639 148 143 640 110 140 641 111 141 642 112 142 643 109 139 644 110 140 645 116 144 646 111 141 647 117 145 648 114 136 649 112 142 650 111 141 651 118 132 652 112 142 653 118 132 654 111 141 655 116 144 656 115 91 657 116 144 658 110 140 659 115 91 660 110 140 661 146 92 662 118 132 663 117 145 664 112 142 665 114 136 666 117 145 667 106 135 668 118 132 669 106 135 670 117 145 671 105 131 672 106 135 673 118 132 674 119 146 675 118 132 676 116 144 677 70 89 678 119 146 679 116 144 680 70 89 681 116 144 682 115 91 683 145 128 684 118 132 685 119 146 686 122 88 687 119 146 688 70 89 689 122 88 690 121 147 691 119 146 692 119 146 693 121 147 694 124 148 695 145 128 696 119 146 697 123 84 698 67 83 699 145 128 700 123 84 701 119 146 702 124 148 703 123 84 704 42 57 705 124 148 706 121 147 707 124 148 708 42 57 709 123 84 710 121 147 711 125 149 712 42 57 713 39 51 714 42 57 715 125 149 716 127 80 717 126 45 718 121 147 719 127 80 720 121 147 721 122 88 722 35 47 723 39 51 724 125 149 725 34 46 726 125 149 727 121 147 728 34 46 729 121 147 730 126 45 731 125 149 732 34 46 733 35 47 734 61 55 735 128 43 736 127 80 737 127 80 738 128 43 739 126 45 740 38 52 741 129 41 742 128 43 743 130 150 744 129 41 745 38 52 746 128 43 747 129 41 748 30 40 749 130 150 750 23 34 751 129 41 752 130 150 753 18 29 754 23 34 755 18 29 756 130 150 757 132 25 758 130 150 759 36 48 760 132 25 761 130 150 762 131 50 763 36 48 764 131 50 765 130 150 766 38 52 767 137 151 768 132 25 769 36 48 770 37 49 771 36 48 772 131 50 773 134 152 774 36 48 775 133 44 776 136 153 777 36 48 778 134 152 779 136 153 780 137 151 781 36 48 782 133 44 783 32 23 784 134 152 785 136 153 786 134 152 787 135 22 788 135 22 789 134 152 790 32 23 791 137 151 792 136 153 793 13 17 794 136 153 795 135 22 796 13 17 797 13 17 798 10 12 799 137 151 800 10 12 801 132 25 802 137 151 803 138 9 804 7 13 805 8 11 806 139 154 807 7 13 808 138 9 809 12 16 810 16 19 811 7 13 812 7 13 813 139 154 814 12 16 815 141 4 816 139 154 817 138 9 818 142 155 819 12 16 820 139 154 821 139 154 822 141 4 823 140 156 824 142 155 825 139 154 826 140 156 827 12 16 828 142 155 829 143 15 830 140 156 831 141 4 832 3 3 833 143 15 834 142 155 835 6 8 836 142 155 837 140 156 838 3 3 839 3 3 840 4 7 841 142 155 842 142 155 843 4 7 844 6 8 845 143 15 846 6 8 847 9 10 848 144 2 849 141 4 850 138 9 851 28 38 852 129 41 853 23 34 854 127 80 855 122 88 856 66 82 857 146 92 858 147 157 859 73 94 860 73 94 861 147 157 862 75 98 863 110 140 864 148 143 865 146 92 866 146 92 867 148 143 868 150 158 869 147 157 870 146 92 871 150 158 872 147 157 873 150 158 874 75 98 875 150 158 876 149 106 877 75 98 878 151 159 879 148 143 880 113 138 881 148 143 882 151 159 883 150 158 884 152 160 885 149 106 886 150 158 887 103 130 888 151 159 889 113 138 890 102 129 891 150 158 892 151 159 893 102 129 894 152 160 895 150 158 896 151 159 897 103 130 898 102 129 899 153 161 900 152 160 901 102 129 902 98 125 903 102 129 904 101 126 905 153 161 906 102 129 907 98 125 908 156 116 909 152 160 910 153 161 911 156 116 912 154 162 913 152 160 914 99 123 915 156 116 916 153 161 917 98 125 918 99 123 919 153 161 920 154 162 921 160 163 922 152 160 923 154 162 924 156 116 925 157 164 926 155 124 927 156 116 928 99 123 929 157 164 930 158 111 931 154 162 932 85 112 933 158 111 934 157 164 935 155 124 936 90 117 937 156 116 938 155 124 939 93 120 940 90 117 941 85 112 942 157 164 943 156 116 944 158 111 945 83 109 946 159 107 947 159 107 948 160 163 949 158 111 950 154 162 951 158 111 952 160 163 953 149 106 954 152 160 955 160 163 956 79 103 957 160 163 958 159 107 959 149 106 960 160 163 961 79 103 962 163 27 963 26 28 964 27 165 965 166 33 966 163 27 967 27 165 968 27 165 969 24 39 970 164 166 971 25 37 972 27 165 973 26 28 974 24 39 975 27 165 976 25 37 977 27 165 978 164 166 979 165 167 980 169 168 981 164 166 982 24 39 983 165 167 984 166 33 985 27 165 986 165 167 987 164 166 988 169 168 989 166 33 990 165 167 991 167 169 992 167 169 993 165 167 994 170 170 995 167 169 996 168 32 997 166 33 998 168 32 999 167 169 1000 170 170 1001 168 32 1002 170 170 1003 21 35 1004 165 167 1005 169 168 1006 170 170 1007 169 168 1008 21 35 1009 170 170 1010 24 39 1011 21 35 1012 169 168 1013</p>
        </triangles>
      </mesh>
    </geometry>
  </library_geometries>
  <library_visual_scenes>
    <visual_scene id="Scene" name="Scene">
      <node id="Sun" name="Sun" type="NODE">
        <matrix sid="transform">1 0 0 0 0 1 0 0 0 0 1 0 0 0 0 1</matrix>
        <instance_light url="#Sun-light"/>
      </node>
      <node id="Stone_Arch_-_Large" name="Stone Arch - Large" type="NODE">
        <matrix sid="transform">3.13916e-7 -1.62921e-7 -1 0.2344818 -1 -1.56163e-14 -3.13916e-7 -8.4159e-8 3.55271e-14 1 -1.62921e-7 0.6263748 0 0 0 1</matrix>
        <instance_geometry url="#Stone_Arch_-_Large_001-mesh" name="Stone Arch - Large">
          <bind_material>
            <technique_common>
              <instance_material symbol="Stone_Arch_Large___Base_001-material" target="#Stone_Arch_Large___Base_001-material">
                <bind_vertex_input semantic="UVMap" input_semantic="TEXCOORD" input_set="0"/>
              </instance_material>
            </technique_common>
          </bind_material>
        </instance_geometry>
      </node>
    </visual_scene>
  </library_visual_scenes>
  <scene>
    <instance_visual_scene url="#Scene"/>
  </scene>
</COLLADA>