{
    "asset" : {
        "generator" : "Khronos glTF Blender I/O v3.4.50",
        "version" : "2.0"
    },
    "extensionsUsed" : [
        "KHR_materials_specular",
        "KHR_materials_ior"
    ],
    "scene" : 0,
    "scenes" : [
        {
            "name" : "Scene",
            "nodes" : [
                0
            ]
        }
    ],
    "nodes" : [
        {
            "mesh" : 0,
            "name" : "free_palm"
        }
    ],
    "materials" : [
        {
            "doubleSided" : true,
            "extensions" : {
                "KHR_materials_specular" : {
                    "specularColorFactor" : [
                        0,
                        0,
                        0
                    ]
                },
                "KHR_materials_ior" : {
                    "ior" : 1.4500000476837158
                }
            },
            "name" : "bark",
            "normalTexture" : {
                "index" : 0
            },
            "pbrMetallicRoughness" : {
                "baseColorTexture" : {
                    "index" : 1
                },
                "metallicFactor" : 0,
                "metallicRoughnessTexture" : {
                    "index" : 2
                }
            }
        },
        {
            "doubleSided" : true,
            "extensions" : {
                "KHR_materials_specular" : {
                    "specularColorFactor" : [
                        0,
                        0,
                        0
                    ]
                },
                "KHR_materials_ior" : {
                    "ior" : 1.4500000476837158
                }
            },
            "name" : "leaf",
            "normalTexture" : {
                "index" : 3
            },
            "pbrMetallicRoughness" : {
                "baseColorTexture" : {
                    "index" : 4
                },
                "metallicFactor" : 0,
                "metallicRoughnessTexture" : {
                    "index" : 5
                }
            }
        }
    ],
    "meshes" : [
        {
            "name" : "free_palm",
            "primitives" : [
                {
                    "attributes" : {
                        "POSITION" : 0,
                        "TEXCOORD_0" : 1,
                        "NORMAL" : 2
                    },
                    "indices" : 3,
                    "material" : 0
                },
                {
                    "attributes" : {
                        "POSITION" : 4,
                        "TEXCOORD_0" : 5,
                        "NORMAL" : 6
                    },
                    "indices" : 7,
                    "material" : 1
                }
            ]
        }
    ],
    "textures" : [
        {
            "sampler" : 0,
            "source" : 0
        },
        {
            "sampler" : 0,
            "source" : 1
        },
        {
            "sampler" : 0,
            "source" : 2
        },
        {
            "sampler" : 0,
            "source" : 3
        },
        {
            "sampler" : 0,
            "source" : 4
        },
        {
            "sampler" : 0,
            "source" : 5
        }
    ],
    "images" : [
        {
            "bufferView" : 4,
            "mimeType" : "image/png",
            "name" : "bark_normal"
        },
        {
            "bufferView" : 5,
            "mimeType" : "image/png",
            "name" : "bark"
        },
        {
            "bufferView" : 6,
            "mimeType" : "image/png",
            "name" : "bark_roughness"
        },
        {
            "bufferView" : 11,
            "mimeType" : "image/png",
            "name" : "leaf_normal"
        },
        {
            "bufferView" : 12,
            "mimeType" : "image/png",
            "name" : "leaf"
        },
        {
            "bufferView" : 13,
            "mimeType" : "image/png",
            "name" : "leaf_roughness"
        }
    ],
    "accessors" : [
        {
            "bufferView" : 0,
            "componentType" : 5126,
            "count" : 181,
            "max" : [
                0.14761249721050262,
                4.0024871826171875,
                0.11744365096092224
            ],
            "min" : [
                -0.09281250089406967,
                -1.5121075946922247e-08,
                -0.09281250089406967
            ],
            "type" : "VEC3"
        },
        {
            "bufferView" : 1,
            "componentType" : 5126,
            "count" : 181,
            "type" : "VEC2"
        },
        {
            "bufferView" : 2,
            "componentType" : 5126,
            "count" : 181,
            "type" : "VEC3"
        },
        {
            "bufferView" : 3,
            "componentType" : 5123,
            "count" : 900,
            "type" : "SCALAR"
        },
        {
            "bufferView" : 7,
            "componentType" : 5126,
            "count" : 1296,
            "max" : [
                1.8384095430374146,
                5.17333984375,
                1.9720162153244019
            ],
            "min" : [
                -1.695572018623352,
                2.6626739501953125,
                -1.676161766052246
            ],
            "type" : "VEC3"
        },
        {
            "bufferView" : 8,
            "componentType" : 5126,
            "count" : 1296,
            "type" : "VEC2"
        },
        {
            "bufferView" : 9,
            "componentType" : 5126,
            "count" : 1296,
            "type" : "VEC3"
        },
        {
            "bufferView" : 10,
            "componentType" : 5123,
            "count" : 4608,
            "type" : "SCALAR"
        }
    ],
    "bufferViews" : [
        {
            "buffer" : 0,
            "byteLength" : 2172,
            "byteOffset" : 0,
            "target" : 34962
        },
        {
            "buffer" : 0,
            "byteLength" : 1448,
            "byteOffset" : 2172,
            "target" : 34962
        },
        {
            "buffer" : 0,
            "byteLength" : 2172,
            "byteOffset" : 3620,
            "target" : 34962
        },
        {
            "buffer" : 0,
            "byteLength" : 1800,
            "byteOffset" : 5792,
            "target" : 34963
        },
        {
            "buffer" : 0,
            "byteLength" : 796475,
            "byteOffset" : 7592
        },
        {
            "buffer" : 0,
            "byteLength" : 774714,
            "byteOffset" : 804068
        },
        {
            "buffer" : 0,
            "byteLength" : 312166,
            "byteOffset" : 1578784
        },
        {
            "buffer" : 0,
            "byteLength" : 15552,
            "byteOffset" : 1890952,
            "target" : 34962
        },
        {
            "buffer" : 0,
            "byteLength" : 10368,
            "byteOffset" : 1906504,
            "target" : 34962
        },
        {
            "buffer" : 0,
            "byteLength" : 15552,
            "byteOffset" : 1916872,
            "target" : 34962
        },
        {
            "buffer" : 0,
            "byteLength" : 9216,
            "byteOffset" : 1932424,
            "target" : 34963
        },
        {
            "buffer" : 0,
            "byteLength" : 382564,
            "byteOffset" : 1941640
        },
        {
            "buffer" : 0,
            "byteLength" : 368196,
            "byteOffset" : 2324204
        },
        {
            "buffer" : 0,
            "byteLength" : 143308,
            "byteOffset" : 2692400
        }
    ],
    "samplers" : [
        {
            "magFilter" : 9729,
            "minFilter" : 9987
        }
    ],
    "buffers" : [
        {
            "byteLength" : 2835708,
            "uri" : "data:application/octet-stream;base64,"
        }
    ]
}
