{
	"asset":{
		"generator":"Khronos glTF Blender I/O v4.0.44",
		"version":"2.0"
	},
	"extensionsUsed":[
		"KHR_materials_specular",
		"KHR_materials_ior"
	],
	"scene":0,
	"scenes":[
		{
			"name":"Scene",
			"nodes":[
				0
			]
		}
	],
	"nodes":[
		{
			"mesh":0,
			"name":"coral",
			"rotation":[
				0.999912679195404,
				0,
				0,
				0.01321570947766304
			],
			"scale":[
				0.009999999776482582,
				0.009999999776482582,
				0.009999999776482582
			],
			"translation":[
				0,
				0.6560491323471069,
				0
			]
		}
	],
	"materials":[
		{
			"doubleSided":true,
			"extensions":{
				"KHR_materials_specular":{
					"specularColorFactor":[
						0.0,
						0.0,
						0.0
					]
				},
				"KHR_materials_ior":{
					"ior":1.4499999284744263
				}
			},
			"name":"MI_Beach_Coral_vmilehcn_2K.011",
			"pbrMetallicRoughness":{
				"baseColorTexture":{
					"index":0
				},
				"roughnessFactor":0.5
			}
		}
	],
	"meshes":[
		{
			"name":"coral.003",
			"primitives":[
				{
					"attributes":{
						"POSITION":0,
						"NORMAL":1
					},
					"indices":2,
					"material":0
				}
			]
		}
	],
	"textures":[
		{
			"sampler":0,
			"source":0
		}
	],
	"images":[
		{
			"mimeType":"image/png",
			"name":"coral.EXR",
			"uri":"coral_EXR.png"
		}
	],
	"accessors":[
		{
			"bufferView":0,
			"componentType":5126,
			"count":58354,
			"max":[
				77.1072006225586,
				63.87764358520508,
				53.124534606933594
			],
			"min":[
				-77.61602020263672,
				-62.08262252807617,
				-56.79167938232422
			],
			"type":"VEC3"
		},
		{
			"bufferView":1,
			"componentType":5126,
			"count":58354,
			"type":"VEC3"
		},
		{
			"bufferView":2,
			"componentType":5123,
			"count":87552,
			"type":"SCALAR"
		}
	],
	"bufferViews":[
		{
			"buffer":0,
			"byteLength":700248,
			"byteOffset":0,
			"target":34962
		},
		{
			"buffer":0,
			"byteLength":700248,
			"byteOffset":700248,
			"target":34962
		},
		{
			"buffer":0,
			"byteLength":175104,
			"byteOffset":1400496,
			"target":34963
		}
	],
	"samplers":[
		{
			"magFilter":9729,
			"minFilter":9987
		}
	],
	"buffers":[
		{
			"byteLength":1575600,
			"uri":"coral%20bouquet.bin"
		}
	]
}
