{
	"asset":{
		"generator":"Khronos glTF Blender I/O v4.0.44",
		"version":"2.0"
	},
	"extensionsUsed":[
		"KHR_materials_specular",
		"KHR_materials_ior"
	],
	"scene":0,
	"scenes":[
		{
			"name":"Scene",
			"nodes":[
				0
			]
		}
	],
	"nodes":[
		{
			"mesh":0,
			"name":"coral.362",
			"rotation":[
				0.999912679195404,
				0,
				0,
				0.013215710408985615
			],
			"scale":[
				0.03231577202677727,
				0.03231577202677727,
				0.03231577202677727
			],
			"translation":[
				78.2413330078125,
				-0.2648875415325165,
				-55.667484283447266
			]
		}
	],
	"materials":[
		{
			"doubleSided":true,
			"extensions":{
				"KHR_materials_specular":{
					"specularColorFactor":[
						0.0,
						0.0,
						0.0
					]
				},
				"KHR_materials_ior":{
					"ior":1.4499999284744263
				}
			},
			"name":"MI_Beach_Coral_vmilehcn_2K.040",
			"pbrMetallicRoughness":{
				"baseColorTexture":{
					"index":0
				},
				"roughnessFactor":0.5
			}
		}
	],
	"meshes":[
		{
			"name":"coral.573",
			"primitives":[
				{
					"attributes":{
						"POSITION":0,
						"NORMAL":1
					},
					"indices":2,
					"material":0
				}
			]
		}
	],
	"textures":[
		{
			"sampler":0,
			"source":0
		}
	],
	"images":[
		{
			"mimeType":"image/png",
			"name":"coral_EXR",
			"uri":"coral_EXR.png"
		}
	],
	"accessors":[
		{
			"bufferView":0,
			"componentType":5126,
			"count":58490,
			"max":[
				77.1072006225586,
				8.973397254943848,
				51.67295455932617
			],
			"min":[
				-77.61602020263672,
				-116.98686218261719,
				-58.24325942993164
			],
			"type":"VEC3"
		},
		{
			"bufferView":1,
			"componentType":5126,
			"count":58490,
			"type":"VEC3"
		},
		{
			"bufferView":2,
			"componentType":5123,
			"count":87552,
			"type":"SCALAR"
		}
	],
	"bufferViews":[
		{
			"buffer":0,
			"byteLength":701880,
			"byteOffset":0,
			"target":34962
		},
		{
			"buffer":0,
			"byteLength":701880,
			"byteOffset":701880,
			"target":34962
		},
		{
			"buffer":0,
			"byteLength":175104,
			"byteOffset":1403760,
			"target":34963
		}
	],
	"samplers":[
		{
			"magFilter":9729,
			"minFilter":9987
		}
	],
	"buffers":[
		{
			"byteLength":1578864,
			"uri":"coral%20bouquet.bin"
		}
	]
}
